<svg viewBox="0 0 440 440" xmlns="http://www.w3.org/2000/svg">
  <path d="M220,374.9777177618151C240.69377402171094,370.6547550416194,245.49214711079688,341.4334924264595,261.86057246221657,328.0545933141692C273.2042751604215,318.78270242052645,287.0352991349057,313.3688905641834,300.95756989904424,308.80622375420376C322.7712241026722,301.6573586211082,348.004574095341,305.58177288615576,367.4851151142382,293.4388612082381C388.2209463413014,280.513482651545,415.15872178833325,262.4499572656253,414.51134571801566,238.02413052967535C413.82128524130974,211.98779954036655,375.8282719404078,202.3289651156804,364.4494212671741,178.90059615404326C355.3246956626661,160.11333509621284,361.52572535348304,137.4826571173137,355.90930596484696,117.3660562945209C349.00044008711706,92.6202374046928,344.29381091702726,65.85052441975851,327.4662236337167,46.4360894172353C310.19251601757816,26.506953521519712,280.9284274845731,-9.318486035335052,259.8932781393547,6.58981130857013C221.41092532187008,35.69294250420259,234.32888907549017,100.91885349688201,204.88482993154116,139.1409819683211C196.41115078873366,150.1408937413112,177.40040627945683,125.21063106223622,164.51990261964676,130.39656614652296C152.57586359687787,135.20546280555163,148.55239327029605,150.94217191421288,144.90423197125648,163.2903083886301C141.5508560835672,174.64066812247967,149.15760273434944,187.6526058756279,144.40206723657062,198.4905336324131C138.68619154697475,211.51708927888845,124.24773715532811,218.22392892942,115.78338908932984,229.65709116596955C100.85455486345191,249.82211538002116,71.06926171517225,267.4081414852825,75.03927823773645,292.1818626774571C78.28722756161855,312.4497357552738,112.24231886833805,308.4603480531318,130.0481963773997,318.67242815668004C144.52836589531648,326.97713827021806,156.61808128498927,338.22738432181023,170.76735204047932,347.08411376474464C186.89257926608295,357.1776922403418,201.37823140132502,378.86783521220013,220,374.9777177618151" fill="#8A3FFC" />
</svg>